<?xml version="1.0" encoding="utf-8"?>
<!-- Svg Vector Icons : http://www.onlinewebfonts.com/icon -->
<!DOCTYPE svg PUBLIC "-//W3C//DTD SVG 1.1//EN" "http://www.w3.org/Graphics/SVG/1.1/DTD/svg11.dtd">
<svg version="1.1" xmlns="http://www.w3.org/2000/svg" xmlns:xlink="http://www.w3.org/1999/xlink" x="0px" y="0px" viewBox="0 0 1000 1000" enable-background="new 0 0 1000 1000" xml:space="preserve">
<metadata> Svg Vector Icons : http://www.onlinewebfonts.com/icon </metadata>
<g><g transform="translate(0.000000,512.000000) scale(0.100000,-0.100000)"><path fill="#61DAFB" d="M4530.1,5008.2c-1154.6-118.9-2188.4-608-2999.7-1419.3C751.6,2810.2,285.6,1858.8,124.4,723.4c-32.6-230.2-32.6-983.9,0-1217.9C281.7-1607,753.6-2571.7,1522.7-3346.6C2288-4115.7,3270-4599,4386.2-4756.3c107.4-13.4,360.6-24.9,613.8-24.9c253.2,0,506.4,11.5,613.8,24.9c1110.5,155.4,2088.7,636.8,2857.8,1404c769.1,771,1246.7,1743.4,1404,2857.8c32.6,234,32.6,987.8,0,1217.9c-161.1,1133.5-629.1,2088.7-1405.9,2865.5c-759.5,759.5-1687.8,1223.7-2779.2,1392.5C5448.8,5017.8,4775.6,5035,4530.1,5008.2z M5613.7,4557.5c469.9-67.1,964.7-220.6,1361.8-418.1c295.4-147.7,446.9-241.7,719.3-445C9016.3,2710.4,9697.2,1007.2,9421-615.4c-188-1095.2-744.2-2050.3-1603.4-2750.4c-1450-1181.5-3527.2-1325.3-5124.9-354.8C1622.4-3072.3,868.6-2019.3,621.2-830.2c-76.7,366.3-97.8,569.6-95.9,949.4c0,508.3,63.3,913,209.1,1367.5c571.6,1768.4,2152,2994,4006.7,3109.1C4938.6,4607.3,5404.7,4586.2,5613.7,4557.5z"/><path fill="#61DAFB" d="M4424.6,4135.5c-245.5-36.4-590.7-124.7-819-211c-226.3-84.4-619.5-276.2-619.5-301.1c0-13.4,1229.5-2161.6,1258.2-2198c3.8-3.8,76.7,24.9,164.9,61.4c163,71,429.6,128.5,590.7,128.5c161.1,0,427.7-57.5,590.7-128.5c88.2-36.4,161.1-65.2,165-61.4c3.8,3.8,255.1,439.2,558.1,966.7c305,527.4,586.9,1016.5,627.2,1085.6c40.3,69,72.9,136.2,72.9,145.8c0,26.9-387.4,214.8-619.5,301.1c-243.6,92.1-565.8,172.6-832.4,211C5293.4,4173.9,4683.5,4173.9,4424.6,4135.5z"/><path fill="#61DAFB" d="M4884.9,961.2C4422.7,905.6,4083.2,451,4158-15c70.9-446.9,521.7-782.5,953.2-711.6c220.6,36.4,356.8,107.4,504.5,262.8c164.9,174.6,235.9,352.9,234,583.1C5845.8,640.9,5404.7,1024.5,4884.9,961.2z"/><path fill="#61DAFB" d="M947.3-28.5c42.2-882.3,316.5-1636.1,847.8-2336.1c124.7-165,425.8-471.8,625.3-638.7c163-138.1,542.8-398.9,554.3-385.5c7.7,9.6,1265.9,2188.4,1273.5,2205.7c3.8,7.7-24.9,32.6-61.4,55.6C3818.5-901.2,3557.7-469.6,3511.6-15l-13.4,134.3H2218.9H939.6L947.3-28.5z"/><path fill="#61DAFB" d="M6488.3-9.3c-46-445-287.7-861.2-634.8-1093.3c-57.5-36.4-105.5-71-105.5-72.9c0-5.8,1267.8-2201.9,1277.4-2213.4c3.8-3.8,94,51.8,201.4,122.8C8329.6-2531.5,9002.9-1336.6,9052.7-28.5l3.8,147.7H7779.2H6501.8L6488.3-9.3z"/></g></g>
</svg>