<?xml version="1.0" encoding="utf-8"?>
<!-- Svg Vector Icons : http://www.onlinewebfonts.com/icon -->
<!DOCTYPE svg PUBLIC "-//W3C//DTD SVG 1.1//EN" "http://www.w3.org/Graphics/SVG/1.1/DTD/svg11.dtd">
<svg version="1.1" xmlns="http://www.w3.org/2000/svg" xmlns:xlink="http://www.w3.org/1999/xlink" x="0px" y="0px" viewBox="0 0 1000 1000" enable-background="new 0 0 1000 1000" xml:space="preserve">
<metadata> Svg Vector Icons : http://www.onlinewebfonts.com/icon </metadata>
<g><g transform="translate(0.000000,511.000000) scale(0.100000,-0.100000)"><path fill="#61DAFB" d="M2545.2,2020.3L100-424.9h534.9h534.9l1914.2,1914.2L5000,3405.3l1916.1-1916.1L8830.2-424.9h534.9H9900L7454.8,2020.3C6109.9,3365.2,5005.7,4465.6,5000,4465.6S3890.1,3365.2,2545.2,2020.3z"/><path fill="#61DAFB" d="M3294.1,1279.1L1599.6-415.3v-1916.1v-1914.2h1700.2H5000v1490.1v1490.1h850.1h850.1v-1490.1v-1490.1h850.1h850.1v1916.1v1914.2L6704,1281c-932.2,932.2-1698.3,1694.5-1704,1694.5S4228.2,2213.3,3294.1,1279.1z"/></g></g>
</svg>